<?xml version="1.0" encoding="utf-8"?>
<svg version="1.1" xmlns:xlink="http://www.w3.org/1999/xlink" width="212px" height="42px" xmlns="http://www.w3.org/2000/svg">
  <g transform="matrix(1 0 0 1 -1204 -368 )">
    <path d="M 1205 395.9  C 1205 395.9  1205 373  1205 373  C 1205 370.790861000677  1206.79086100068 369  1209 369  C 1209 369  1411 369  1411 369  C 1413.20913899932 369  1415 370.790861000677  1415 373  C 1415 373  1415 395.9  1415 395.9  C 1415 398.109138999323  1413.20913899932 399.9  1411 399.9  C 1411 399.9  1323.27194130565 399.9  1323.27194130565 399.9  C 1323.27194130565 399.9  1313.36776696886 408.647773727558  1313.36776696886 408.647773727558  C 1313.36776696886 408.647773727558  1304.04606498135 399.9  1304.04606498135 399.9  C 1304.04606498135 399.9  1209 399.9  1209 399.9  C 1206.79086100068 399.9  1205 398.109138999323  1205 395.9  Z " fill-rule="nonzero" fill="#333333" stroke="none" fill-opacity="0.8" />
  </g>
</svg>